<?xml version="1.0" encoding="UTF-8"?> <svg xmlns="http://www.w3.org/2000/svg" width="155" height="35" viewBox="0 0 155 35" fill="none"><path d="M45.6334 34.2024C39.4435 34.2024 34.343 30.8489 34.343 23.8558C34.343 19.6514 36.8456 17.6685 38.1232 16.6293C36.9435 15.6378 34.6743 13.6071 34.6743 9.96753C34.6743 3.58942 39.8702 0 45.6334 0C51.3965 0 56.5924 3.58942 56.5924 9.96753C56.5924 13.6046 54.3258 15.6353 53.1435 16.6293C54.4186 17.6685 56.9237 19.6514 56.9237 23.8558C56.9237 30.8489 51.8207 34.2024 45.6334 34.2024ZM45.6334 20.1258C43.6956 20.1258 42.0891 21.7323 42.0891 23.6676C42.0891 25.6028 43.6956 27.2093 45.6334 27.2093C47.5711 27.2093 49.1751 25.6028 49.1751 23.6676C49.1751 21.7323 47.5686 20.1258 45.6334 20.1258ZM45.6334 6.99308C43.8387 6.99308 42.4205 8.40877 42.4205 10.206C42.4205 12.0032 43.8387 13.4189 45.6334 13.4189C47.4281 13.4189 48.8463 12.0007 48.8463 10.206C48.8463 8.41128 47.4281 6.99308 45.6334 6.99308Z" fill="white"></path><path d="M23.2434 0.283203L15.6855 15.1178L8.12513 0.283203H0V33.9183H8.26821V17.8086L11.4836 23.4136H19.8849L23.1003 17.8086V33.9183H31.3685V0.283203H23.2434Z" fill="white"></path><path d="M23.2434 0.283203L15.6855 15.1178L19.8849 23.4136L23.1003 17.8086V33.9183H31.3685V0.283203H23.2434Z" fill="white"></path><path d="M18.7278 9.14453L15.6855 15.1185L19.8849 23.4143L23.1003 17.8093L18.7278 9.14453Z" fill="url(#paint0_linear_585_4078)"></path><path d="M71.3164 26.5569H66.3615V33.914H65.0688V16.5693H71.3164C74.2608 16.5693 76.4621 18.3716 76.4621 21.5619C76.4621 24.7296 74.2608 26.5569 71.3164 26.5569ZM71.1734 17.7365H66.3615V25.3847H71.1734C73.5429 25.3847 75.1694 24.1674 75.1694 21.5594C75.1694 18.9564 73.5429 17.7365 71.1734 17.7365Z" fill="white"></path><path d="M86.6329 32.7444C85.6514 33.7434 84.7428 34.0597 83.1137 34.0597C81.3893 34.0597 80.4581 33.766 79.7151 32.9879C79.1654 32.4281 78.8767 31.5747 78.8767 30.6987C78.8767 28.5551 80.3853 27.3126 82.8979 27.3126H86.6304V25.9973C86.6304 24.1223 85.7443 23.1233 83.3748 23.1233C81.7482 23.1233 80.9325 23.5374 80.192 24.6092L79.3059 23.8286C80.2874 22.4405 81.4847 22.0264 83.3748 22.0264C86.4371 22.0264 87.8502 23.4144 87.8502 25.8743V33.9141H86.6304V32.7444H86.6329ZM83.0434 28.3091C81.0806 28.3091 80.0991 29.0872 80.0991 30.6711C80.0991 32.2298 81.0078 32.9603 83.1137 32.9603C84.168 32.9603 85.1469 32.8624 85.9853 32.0592C86.417 31.645 86.6329 30.8895 86.6329 29.8177V28.3066H83.0434V28.3091Z" fill="white"></path><path d="M96.9469 23.1203C94.9615 23.1203 93.8595 24.8021 93.8595 26.6771V33.9112H92.6396V22.169H93.8595V23.7278C94.5297 22.6309 95.8701 22.0234 97.2331 22.0234C98.3576 22.0234 99.1709 22.292 100.009 23.1454L99.1232 24.0466C98.4304 23.3412 97.9033 23.1203 96.9469 23.1203Z" fill="white"></path><path d="M102.953 30.8438V23.0977H101.375V22.1715H102.953V18.4189H104.173V22.1715H106.781V23.0977H104.173V30.8689C104.173 32.1114 104.723 32.8168 105.945 32.8168H106.784V33.9137H105.73C103.91 33.9137 102.953 32.621 102.953 30.8438Z" fill="white"></path><path d="M118.34 26.6299C118.34 24.3633 117.238 23.1208 115.157 23.1208C113.077 23.1208 111.902 24.3884 111.902 26.6299V33.9141H110.682V22.1719H111.902V23.56C112.763 22.5359 113.887 22.0264 115.3 22.0264C116.568 22.0264 117.597 22.3928 118.363 23.1484C119.153 23.9265 119.56 25.0234 119.56 26.4115V33.9141H118.34V26.6299Z" fill="white"></path><path d="M128.606 32.9373C129.969 32.9373 130.808 32.5231 131.789 31.5241L132.698 32.2545C131.526 33.4493 130.449 34.0568 128.534 34.0568C125.351 34.0568 123.626 31.9608 123.626 28.0401C123.626 24.2398 125.348 22.0234 128.245 22.0234C131.142 22.0234 132.864 24.1419 132.864 27.7489V28.3087H124.846C124.849 31.3057 126.142 32.9373 128.606 32.9373ZM131.24 25.0933C130.738 23.8508 129.588 23.1203 128.248 23.1203C126.907 23.1203 125.758 23.8508 125.256 25.0933C124.992 25.8488 124.919 26.1651 124.849 27.3097H131.646C131.573 26.1902 131.551 25.8011 131.24 25.0933Z" fill="white"></path><path d="M141.36 23.1203C139.375 23.1203 138.273 24.8021 138.273 26.6771V33.9112H137.053V22.169H138.273V23.7278C138.943 22.6309 140.283 22.0234 141.646 22.0234C142.771 22.0234 143.584 22.292 144.423 23.1454L143.537 24.0466C142.844 23.3412 142.319 23.1203 141.36 23.1203Z" fill="white"></path><path d="M150.384 34.0593C148.373 34.0593 146.89 33.5221 145.718 32.3775L146.556 31.5241C147.442 32.4729 148.71 32.9624 150.336 32.9624C152.61 32.9624 153.805 32.1591 153.805 30.5753C153.805 29.3328 153.135 28.773 151.604 28.6024L149.689 28.4317C147.367 28.2359 146.22 27.2143 146.22 25.3618C146.22 23.3161 147.846 22.0234 150.359 22.0234C151.963 22.0234 153.374 22.4853 154.403 23.2659L153.589 24.0943C152.703 23.4366 151.627 23.0952 150.359 23.0952C148.444 23.0952 147.415 23.8985 147.415 25.3618C147.415 26.6043 148.132 27.1641 149.759 27.3348L151.626 27.5055C153.542 27.7012 155 28.2861 155 30.5753C155.003 32.7189 153.23 34.0593 150.384 34.0593Z" fill="white"></path><defs><linearGradient id="paint0_linear_585_4078" x1="15.2712" y1="18.1615" x2="23.8026" y2="14.1833" gradientUnits="userSpaceOnUse"><stop stop-color="#B4B4B4"></stop><stop offset="0.1164" stop-color="#C9C9C9"></stop><stop offset="0.2839" stop-color="#E1E1E1"></stop><stop offset="0.4622" stop-color="#F2F2F2"></stop><stop offset="0.6572" stop-color="#FCFCFC"></stop><stop offset="0.9" stop-color="white"></stop></linearGradient></defs></svg> 